PathFileType	4	(X/Y/Z)	54_1_30_p1_0-387_filt_butterworth.trc
DataRate	CameraRate	NumFrames	NumMarkers	Units	OrigDataRate	OrigDataStartFrame	OrigNumFrames
59.0	59.0	5	27	m	59.0	290	387
Frame#	Time	RHip			RKnee			RAnkle			RBigToe			RSmallToe			RHeel			LHip			LKnee			LAnkle			LBigToe			LSmallToe			LHeel			Neck			Head			Nose			RShoulder			RElbow			RWrist			RThumb			RIndex			RPinky			LShoulder			LElbow			LWrist			LThumb			LIndex			LPinky			
		X1	Y1	Z1	X2	Y2	Z2	X3	Y3	Z3	X4	Y4	Z4	X5	Y5	Z5	X6	Y6	Z6	X7	Y7	Z7	X8	Y8	Z8	X9	Y9	Z9	X10	Y10	Z10	X11	Y11	Z11	X12	Y12	Z12	X13	Y13	Z13	X14	Y14	Z14	X15	Y15	Z15	X16	Y16	Z16	X17	Y17	Z17	X18	Y18	Z18	X19	Y19	Z19	X20	Y20	Z20	X21	Y21	Z21	X22	Y22	Z22	X23	Y23	Z23	X24	Y24	Z24	X25	Y25	Z25	X26	Y26	Z26	X27	Y27	Z27	
290	4.915254237288136	0.2979918393197106	1.0410974317855624	0.5174040717065569	0.2939189497132973	0.5418613592617842	0.5742367341328264	0.2798217723343991	0.08823111303498529	0.5566043117598412	0.21081001919677	0.07866362444224605	0.34246529060298836	0.2842846259653007	0.056355356395557304	0.3811671179438333	0.2575222393585824	-0.005326078090152961	0.6461736642281823	0.06871886360393963	1.04920795970566	0.5594401835223879	0.08095638006946178	0.5572556083830331	0.5805237004726514	0.061940023271628605	0.11761530184541397	0.5659765584901646	0.06451930420749022	0.07126130535968117	0.3720357149196304	0.008304361150091623	0.03983967524020454	0.4404761561768977	0.07286960858189885	0.06320067919943692	0.594455436272473	0.21120942522212993	1.595721200000178	0.5364806172244231	0.2178102725062003	1.8504413219774338	0.5071003119325039	0.20946230629420504	1.7077281451719224	0.4601719213385517	0.3680544636950277	1.4940257316865628	0.5266345957716311	0.37227753200108765	1.2302296975745934	0.4307645754194352	0.2876426183727895	0.9938358612297578	0.31322226968588635	0.1864126606590214	0.9153013111208177	0.2885532247907284	0.20197657890372278	0.8878323486851377	0.2924978645259877	0.23281793815345575	0.8590275276641078	0.32819140242289385	0.04159629009439959	1.5243375418271794	0.5913861092038866	-0.007208331702189187	1.263203485566317	0.4895014682045218	0.030478961521468794	1.0388610147696091	0.3288569528437263	0.11494524828723235	0.978805538294363	0.2757360576097217	0.09780271995933651	0.9564202094667156	0.2496277861425799	0.05880693515160379	0.9474652879245579	0.25174817707122366	
291	4.932203389830509	0.2979074977177101	1.0409467343421517	0.5209492634669906	0.2936950859391392	0.5409755379487078	0.5748879607080282	0.2799420933988051	0.08750770769462721	0.5564786784054613	0.2107583696490013	0.07862672726231143	0.3423227183214591	0.28428472517711845	0.05620697589351778	0.38118629253471303	0.2579850547303514	-0.004416790978977727	0.644430414504448	0.06974411341990662	1.0479421363012058	0.5633787843695912	0.08143134368993808	0.5566214275365065	0.581036385945071	0.061932751243794444	0.11763310527978366	0.5659412902522896	0.06514848192676403	0.07308870930053293	0.3697069267339999	0.008364410528139351	0.039181731370046685	0.4401025030832641	0.07261374083631114	0.06326611594790243	0.5940441793937989	0.21118934912567536	1.595689928293188	0.5365051605283594	0.2177812287607614	1.8504028841225677	0.5070598005896519	0.20835059644325057	1.7076905095703387	0.46042984305960927	0.36785149232887704	1.4935179087287258	0.5289487288138012	0.37440660529995956	1.2308227877311289	0.42835082235703253	0.2980117084795371	0.9943036696759705	0.3046188147721661	0.20391881715286497	0.9103003183478852	0.2830970442368245	0.2207476980205518	0.888379016426212	0.2740970997643057	0.25431319193235	0.8641090122958796	0.31231367304574964	0.041626967338148	1.5243043358280528	0.591648614405164	-0.009584579896707798	1.2648751490536974	0.4880226694312562	0.015993331816716503	1.0405410894608178	0.3278771712692714	0.0981264158853557	0.9712411401754821	0.27470753934611375	0.07923754419033144	0.9560800982685363	0.24461772454814867	0.0362839482776031	0.9441188264205396	0.2543202447076929	
292	4.9491525423728815	0.297979143337825	1.0409863250774642	0.5246592768022426	0.29351918369483593	0.5401779336289478	0.5753672003675834	0.28007794806771547	0.08698039891746905	0.5561279649846604	0.21072800005999126	0.07856756327563902	0.34225488488115274	0.2845718292217478	0.05554187798580279	0.3819613346263995	0.25852595437665526	-0.003331062183179436	0.6427393841542413	0.07125533814349105	1.046889445638886	0.567285937291899	0.08184986511906768	0.55572114094388	0.5814464703142453	0.061929348443129084	0.1176479637955162	0.5658804638179085	0.06557768099163593	0.07390138932838472	0.3687808042010969	0.008415424891860314	0.03866910306423094	0.43983564737586883	0.07238544234861045	0.06352739318302826	0.5933655807341192	0.2111789447585385	1.595687466458013	0.5365271507668435	0.21776557616720482	1.8503597003538792	0.5070112215879279	0.20729563201784973	1.7075997515008072	0.46115933739286186	0.36749683992384063	1.4928618292796119	0.5316854873762126	0.37680760218244325	1.231418084104267	0.4267653074636636	0.3076898888061943	0.9945879825959871	0.298320309361554	0.22173140181065648	0.9058465413463278	0.27651495110496827	0.23914353767021784	0.8890526808336088	0.2578177292592797	0.2749363745641482	0.8701476773781442	0.2970400319038199	0.04155307605795375	1.5243848345535402	0.5914946417131982	-0.01147200663821292	1.2663240473295547	0.487656365048721	0.001408153525702287	1.0415373234133984	0.3317246670267602	0.08076178109328215	0.964709481798233	0.2748669001631663	0.060126430661407465	0.9543039409480515	0.2429855678836852	0.013376976233197245	0.938410716647216	0.26214404876197567	
293	4.966101694915254	0.2982216185694254	1.0410018602260422	0.5283632119642503	0.29339741474364617	0.5394796161189139	0.5756773183339771	0.28022696380365997	0.08674781631278593	0.5555771401397102	0.21071540617430468	0.07851384893433994	0.34225290118475893	0.2851514730056697	0.05436853747489098	0.38351293288551797	0.25907202584514155	-0.0021361585740900906	0.6413148895599381	0.07303412504076519	1.0460810095371662	0.5710189402961631	0.08219935289114717	0.5545659501590863	0.5817653200607434	0.061928474261626856	0.11766918268965779	0.5658038895115914	0.06588059081670487	0.07326498344047254	0.3695981203361718	0.008455959761827558	0.0383872505582863	0.43971753238761235	0.07227790399639497	0.06409424625584811	0.5923845285864858	0.21118117863825508	1.5956901181734038	0.5365335864543438	0.21776303625036425	1.8503175103193479	0.5069522034290044	0.20634026996947755	1.7074996565141145	0.46196357377969066	0.36710446359539606	1.4922102768214833	0.5343314367232209	0.3796424379573977	1.2319439485701622	0.4267424662826056	0.31764610961236267	0.9944227794465575	0.2957090888942533	0.23834645996661408	0.9022712308229148	0.2688927165525876	0.2556924569269038	0.8896212600533758	0.2461218942664425	0.2941329596668241	0.8747684085950153	0.28561265981603257	0.04149739038339698	1.5245386506383318	0.5913807056054495	-0.013520259011340765	1.2670539453905112	0.4901227380882145	-0.012433420609028509	1.0422909436054288	0.33885779029285246	0.06297039587097436	0.959961680521925	0.2751837974096583	0.040889358890058854	0.9515968279175828	0.24437116326220262	-0.008862431579566097	0.9323931867087122	0.27223069394498617	
294	4.983050847457627	0.2986076044345045	1.0408212048787524	0.5319141099536965	0.2933395511748852	0.5388964822286725	0.5758004248607269	0.2803898283579818	0.08683655461256143	0.5548636087326916	0.2106960820790706	0.07851847291254453	0.34225362070781934	0.28594077514573857	0.052848188708831095	0.3856443920940525	0.2595321676143149	-0.0009739092207104779	0.6402078962721788	0.07480383721215512	1.045384825400696	0.5744979933779636	0.08247228852231367	0.5532361159629522	0.5819931002738248	0.06192897754662924	0.11771305474226793	0.565728365388178	0.06620356216290188	0.07129419663138213	0.37183968241217435	0.008478473918800702	0.03834034887225128	0.4397884849238	0.07235229576962114	0.06493478592772303	0.5911920396392301	0.2111930135877243	1.5956882164891477	0.5365193639688455	0.2177667934036322	1.8502820940691753	0.5068869680428353	0.20554930540961214	1.707411140846176	0.462666825054182	0.36675483113395707	1.4917751737528626	0.5364176871546656	0.38307349637615695	1.2322006195423294	0.42905698358568545	0.3290030200317078	0.9941446165134886	0.296547977176062	0.25358094408105625	0.8995657346839387	0.26137748371407526	0.2703406369679827	0.890164522329565	0.23998729022458376	0.311748945042968	0.8767887144448088	0.279950996886932	0.04147735335108406	1.5247008443876222	0.5913782513717722	-0.01632994323726732	1.2667990059630936	0.4963691278003704	-0.025413622709467103	1.0425979137050108	0.34782440074272464	0.045410497420375694	0.9563439425326549	0.27661335832967826	0.022076060446260655	0.9484622601343914	0.24877083663332428	-0.029853126752787333	0.927336826828975	0.28183446434602105	
